{
  "accessors": [
    {
      "bufferView": 2,
      "componentType": 5126,
      "count": 984,
      "max": [
        1.357496738433838,
        0.4039897918701172,
        -3.4007158279418945
      ],
      "min": [
        -2.031946897506714,
        -1.3589725494384766,
        -6.160326957702637
      ],
      "type": "VEC3"
    },
    {
      "bufferView": 2,
      "byteOffset": 11808,
      "componentType": 5126,
      "count": 984,
      "max": [
        0.7541728615760803,
        0.9964334964752197,
        0.9880272150039673
      ],
      "min": [
        -0.998492956161499,
        -0.9995439052581787,
        -0.8897907137870789
      ],
      "type": "VEC3"
    },
    {
      "bufferView": 3,
      "componentType": 5126,
      "count": 984,
      "max": [
        0.6803966164588928,
        0.9946852326393127,
        0.9986695051193237,
        1.0
      ],
      "min": [
        -0.9780702590942383,
        -0.9975944757461548,
        -0.9244204163551331,
        1.0
      ],
      "type": "VEC4"
    },
    {
      "bufferView": 1,
      "componentType": 5126,
      "count": 984,
      "max": [
        0.9977928996086121,
        1.0
      ],
      "min": [
        0.0,
        5.1649468732419164e-15
      ],
      "type": "VEC2"
    },
    {
      "bufferView": 1,
      "byteOffset": 7872,
      "componentType": 5126,
      "count": 984,
      "max": [
        0.9977928996086121,
        1.0
      ],
      "min": [
        0.0,
        5.1649468732419164e-15
      ],
      "type": "VEC2"
    },
    {
      "bufferView": 0,
      "componentType": 5125,
      "count": 4902,
      "type": "SCALAR"
    }
  ],
  "asset": {
    "extras": {
      "author": "nbrutschy (https://sketchfab.com/nbrutschy)",
      "license": "CC-BY-4.0 (http://creativecommons.org/licenses/by/4.0/)",
      "source": "https://sketchfab.com/3d-models/nbrutschy-flour-bab9b466f2824bdcb5c5e30faadc8090",
      "title": "nbrutschy_flour"
    },
    "generator": "Sketchfab-15.1.0",
    "version": "2.0"
  },
  "bufferViews": [
    {
      "buffer": 0,
      "byteLength": 19608,
      "name": "floatBufferViews",
      "target": 34963
    },
    {
      "buffer": 0,
      "byteLength": 15744,
      "byteOffset": 19608,
      "byteStride": 8,
      "name": "floatBufferViews",
      "target": 34962
    },
    {
      "buffer": 0,
      "byteLength": 23616,
      "byteOffset": 35352,
      "byteStride": 12,
      "name": "floatBufferViews",
      "target": 34962
    },
    {
      "buffer": 0,
      "byteLength": 15744,
      "byteOffset": 58968,
      "byteStride": 16,
      "name": "floatBufferViews",
      "target": 34962
    }
  ],
  "buffers": [
    {
      "byteLength": 74712,
      "uri": "scene.bin"
    }
  ],
  "images": [
    {
      "uri": "textures/lambert18_baseColor.png"
    },
    {
      "uri": "textures/lambert18_normal.png"
    }
  ],
  "materials": [
    {
      "doubleSided": true,
      "name": "lambert18",
      "normalTexture": {
        "index": 1
      },
      "pbrMetallicRoughness": {
        "baseColorTexture": {
          "index": 0
        },
        "metallicFactor": 0.0,
        "roughnessFactor": 0.6
      }
    }
  ],
  "meshes": [
    {
      "name": "polySurface1_lambert18_0",
      "primitives": [
        {
          "attributes": {
            "NORMAL": 1,
            "POSITION": 0,
            "TANGENT": 2,
            "TEXCOORD_0": 3,
            "TEXCOORD_1": 4
          },
          "indices": 5,
          "material": 0,
          "mode": 4
        }
      ]
    }
  ],
  "nodes": [
    {
      "children": [
        1
      ],
      "matrix": [
        1.0,
        0.0,
        0.0,
        0.0,
        0.0,
        2.220446049250313e-16,
        -1.0,
        0.0,
        0.0,
        1.0,
        2.220446049250313e-16,
        0.0,
        0.0,
        0.0,
        0.0,
        1.0
      ],
      "name": "Sketchfab_model"
    },
    {
      "children": [
        2
      ],
      "matrix": [
        0.009999999776482582,
        0.0,
        0.0,
        0.0,
        0.0,
        0.0,
        0.009999999776482582,
        0.0,
        0.0,
        -0.009999999776482582,
        0.0,
        0.0,
        0.0,
        0.0,
        0.0,
        1.0
      ],
      "name": "flour_final.fbx"
    },
    {
      "children": [
        3
      ],
      "name": "RootNode"
    },
    {
      "children": [
        4
      ],
      "matrix": [
        33.74875486328101,
        -81.46899927502115,
        -47.157435281244574,
        0.0,
        -83.17712302292645,
        -2.352795389331397,
        -55.46197399556656,
        0.0,
        44.07479722933648,
        57.94192360443813,
        -68.55760890091145,
        0.0,
        164.41888427734375,
        -237.7606964111328,
        -347.7519836425781,
        1.0
      ],
      "name": "polySurface1"
    },
    {
      "mesh": 0,
      "name": "polySurface1_lambert18_0"
    }
  ],
  "samplers": [
    {
      "magFilter": 9729,
      "minFilter": 9987,
      "wrapS": 10497,
      "wrapT": 10497
    }
  ],
  "scene": 0,
  "scenes": [
    {
      "name": "Sketchfab_Scene",
      "nodes": [
        0
      ]
    }
  ],
  "textures": [
    {
      "sampler": 0,
      "source": 0
    },
    {
      "sampler": 0,
      "source": 1
    }
  ]
}
