{
	"asset":{
		"generator":"Khronos glTF Blender I/O v4.3.47",
		"version":"2.0"
	},
	"scene":0,
	"scenes":[
		{
			"name":"Scene",
			"nodes":[
				4
			]
		}
	],
	"nodes":[
		{
			"mesh":0,
			"name":"Sphere_Material.003_0",
			"translation":[
				0,
				0,
				-1.1419122219085693
			]
		},
		{
			"children":[
				0
			],
			"name":"Sphere",
			"rotation":[
				-0.70710688829422,
				0,
				0,
				0.7071066498756409
			],
			"scale":[
				100,
				99.99999237060547,
				81.41957092285156
			],
			"translation":[
				0,
				92.8776626586914,
				0
			]
		},
		{
			"children":[
				1
			],
			"name":"RootNode"
		},
		{
			"children":[
				2
			],
			"name":"691fe850bac34b01a1da70c9fd0c38b5.fbx",
			"rotation":[
				0.70710688829422,
				0,
				0,
				0.7071066498756409
			],
			"scale":[
				0.009999999776482582,
				0.010000000707805157,
				0.010000000707805157
			]
		},
		{
			"children":[
				3
			],
			"name":"Sketchfab_model",
			"rotation":[
				-0.70710688829422,
				0,
				0,
				0.7071066498756409
			]
		}
	],
	"materials":[
		{
			"doubleSided":true,
			"name":"Material.003",
			"pbrMetallicRoughness":{
				"baseColorFactor":[
					0.3051239848136902,
					0.6955119371414185,
					0.6955119371414185,
					1
				],
				"metallicFactor":0,
				"roughnessFactor":0.6000000238418579
			}
		}
	],
	"meshes":[
		{
			"name":"Sphere_Material.003_0",
			"primitives":[
				{
					"attributes":{
						"POSITION":0,
						"NORMAL":1,
						"TEXCOORD_0":2
					},
					"indices":3,
					"material":0
				}
			]
		}
	],
	"accessors":[
		{
			"bufferView":0,
			"componentType":5126,
			"count":10311,
			"max":[
				1.08273446559906,
				1.0827330350875854,
				0.49443450570106506
			],
			"min":[
				-1.0827300548553467,
				-1.08273184299469,
				-0.5142514705657959
			],
			"type":"VEC3"
		},
		{
			"bufferView":1,
			"componentType":5126,
			"count":10311,
			"type":"VEC3"
		},
		{
			"bufferView":2,
			"componentType":5126,
			"count":10311,
			"type":"VEC2"
		},
		{
			"bufferView":3,
			"componentType":5123,
			"count":54528,
			"type":"SCALAR"
		}
	],
	"bufferViews":[
		{
			"buffer":0,
			"byteLength":123732,
			"byteOffset":0,
			"target":34962
		},
		{
			"buffer":0,
			"byteLength":123732,
			"byteOffset":123732,
			"target":34962
		},
		{
			"buffer":0,
			"byteLength":82488,
			"byteOffset":247464,
			"target":34962
		},
		{
			"buffer":0,
			"byteLength":109056,
			"byteOffset":329952,
			"target":34963
		}
	],
	"buffers":[
		{
			"byteLength":439008,
			"uri":"bowl_v2.bin"
		}
	]
}
