{
	"asset":{
		"generator":"Khronos glTF Blender I/O v4.3.47",
		"version":"2.0"
	},
	"scene":0,
	"scenes":[
		{
			"name":"Scene",
			"nodes":[
				23
			]
		}
	],
	"nodes":[
		{
			"mesh":0,
			"name":"body_body1_0",
			"translation":[
				-74.27555084228516,
				36.20985794067383,
				-3.222686767578125
			]
		},
		{
			"mesh":1,
			"name":"body_body_0",
			"translation":[
				-74.27556610107422,
				36.20985794067383,
				-3.222686767578125
			]
		},
		{
			"mesh":2,
			"name":"body_leaf_0",
			"translation":[
				-74.27556610107422,
				36.20985794067383,
				-3.222686767578125
			]
		},
		{
			"children":[
				0,
				1,
				2
			],
			"name":"body",
			"translation":[
				305.82733154296875,
				-3.814697265625e-06,
				-24.307321548461914
			]
		},
		{
			"mesh":3,
			"name":"leaf_1_leaf_0",
			"translation":[
				145.99774169921875,
				0.3023257255554199,
				-44.606605529785156
			]
		},
		{
			"children":[
				4
			],
			"name":"leaf_1",
			"translation":[
				85.55404663085938,
				35.907535552978516,
				17.07659912109375
			]
		},
		{
			"mesh":4,
			"name":"leaf_2_leaf_0",
			"translation":[
				200.13265991210938,
				-44.58209991455078,
				-2.051333427429199
			]
		},
		{
			"children":[
				6
			],
			"name":"leaf_2",
			"translation":[
				31.41912841796875,
				80.79196166992188,
				-25.478673934936523
			]
		},
		{
			"mesh":5,
			"name":"leaf_3_leaf_0",
			"translation":[
				140.5565185546875,
				-0.5700035095214844,
				56.18562698364258
			]
		},
		{
			"children":[
				8
			],
			"name":"leaf_3",
			"translation":[
				90.99528503417969,
				36.77986145019531,
				-83.71563720703125
			]
		},
		{
			"mesh":6,
			"name":"leaf_4_leaf_0",
			"translation":[
				203.02862548828125,
				42.96535110473633,
				-2.051333427429199
			]
		},
		{
			"children":[
				10
			],
			"name":"leaf_4",
			"translation":[
				28.523193359375,
				-6.755489349365234,
				-25.478673934936523
			]
		},
		{
			"mesh":7,
			"name":"leaf_5_leaf_0",
			"translation":[
				177.50787353515625,
				-19.335241317749023,
				-8.17486572265625
			]
		},
		{
			"children":[
				12
			],
			"name":"leaf_5",
			"translation":[
				54.043914794921875,
				55.545101165771484,
				-19.35514259338379
			]
		},
		{
			"mesh":8,
			"name":"leaf_6_leaf_0",
			"translation":[
				165.56832885742188,
				30.14350700378418,
				5.021823883056641
			]
		},
		{
			"children":[
				14
			],
			"name":"leaf_6",
			"translation":[
				65.98348999023438,
				6.06634521484375,
				-32.55183029174805
			]
		},
		{
			"mesh":9,
			"name":"leaf_7_leaf_0",
			"translation":[
				166.03518676757812,
				-5.041327476501465,
				32.77835464477539
			]
		},
		{
			"children":[
				16
			],
			"name":"leaf_7",
			"translation":[
				65.51661682128906,
				41.25118637084961,
				-60.30836486816406
			]
		},
		{
			"children":[
				3,
				5,
				7,
				9,
				11,
				13,
				15,
				17
			],
			"name":"carrot_fbx",
			"translation":[
				3.0517578125e-05,
				-3.8146970382513246e-06,
				0
			]
		},
		{
			"name":"Object_4",
			"translation":[
				-4.7087669372558594e-05,
				0,
				0
			]
		},
		{
			"children":[
				19
			],
			"name":"\ufffd\ufffd\ufffd\ufffd\ufffd\ufffd_Cinema_4D",
			"rotation":[
				-0.07143981009721756,
				0.6996597647666931,
				-0.07221163064241409,
				0.707218587398529
			],
			"translation":[
				151.85165405273438,
				137.05284118652344,
				560.5348510742188
			]
		},
		{
			"children":[
				18,
				20
			],
			"name":"RootNode",
			"translation":[
				3.0517578125e-05,
				-3.8146970382513246e-06,
				0
			]
		},
		{
			"children":[
				21
			],
			"name":"carrot1.fbx",
			"rotation":[
				0.70710688829422,
				0,
				0,
				0.7071066498756409
			],
			"translation":[
				1.52587890625e-05,
				0,
				0
			]
		},
		{
			"children":[
				22
			],
			"name":"Sketchfab_model",
			"rotation":[
				-0.70710688829422,
				0,
				0,
				0.7071066498756409
			],
			"scale":[
				0.19999998807907104,
				0.20000001788139343,
				0.20000001788139343
			],
			"translation":[
				-46.91398239135742,
				-8.48269271850586,
				3.5838167667388916
			]
		}
	],
	"materials":[
		{
			"doubleSided":true,
			"name":"body1",
			"pbrMetallicRoughness":{
				"baseColorTexture":{
					"index":0
				},
				"metallicFactor":0,
				"roughnessFactor":0.6000000238418579
			}
		},
		{
			"doubleSided":true,
			"name":"body",
			"pbrMetallicRoughness":{
				"baseColorTexture":{
					"index":1
				},
				"metallicFactor":0,
				"roughnessFactor":0.6000000238418579
			}
		},
		{
			"doubleSided":true,
			"name":"leaf",
			"pbrMetallicRoughness":{
				"baseColorTexture":{
					"index":2
				},
				"metallicFactor":0,
				"roughnessFactor":0.6000000238418579
			}
		}
	],
	"meshes":[
		{
			"name":"body_body1_0",
			"primitives":[
				{
					"attributes":{
						"POSITION":0,
						"NORMAL":1,
						"TEXCOORD_0":2
					},
					"indices":3,
					"material":0
				}
			]
		},
		{
			"name":"body_body_0",
			"primitives":[
				{
					"attributes":{
						"POSITION":4,
						"NORMAL":5,
						"TEXCOORD_0":6
					},
					"indices":7,
					"material":1
				}
			]
		},
		{
			"name":"body_leaf_0",
			"primitives":[
				{
					"attributes":{
						"POSITION":8,
						"NORMAL":9,
						"TEXCOORD_0":10
					},
					"indices":11,
					"material":2
				}
			]
		},
		{
			"name":"leaf_1_leaf_0",
			"primitives":[
				{
					"attributes":{
						"POSITION":12,
						"NORMAL":13,
						"TEXCOORD_0":14
					},
					"indices":15,
					"material":2
				}
			]
		},
		{
			"name":"leaf_2_leaf_0",
			"primitives":[
				{
					"attributes":{
						"POSITION":16,
						"NORMAL":17,
						"TEXCOORD_0":18
					},
					"indices":19,
					"material":2
				}
			]
		},
		{
			"name":"leaf_3_leaf_0",
			"primitives":[
				{
					"attributes":{
						"POSITION":20,
						"NORMAL":21,
						"TEXCOORD_0":22
					},
					"indices":23,
					"material":2
				}
			]
		},
		{
			"name":"leaf_4_leaf_0",
			"primitives":[
				{
					"attributes":{
						"POSITION":24,
						"NORMAL":25,
						"TEXCOORD_0":26
					},
					"indices":27,
					"material":2
				}
			]
		},
		{
			"name":"leaf_5_leaf_0",
			"primitives":[
				{
					"attributes":{
						"POSITION":28,
						"NORMAL":29,
						"TEXCOORD_0":30
					},
					"indices":31,
					"material":2
				}
			]
		},
		{
			"name":"leaf_6_leaf_0",
			"primitives":[
				{
					"attributes":{
						"POSITION":32,
						"NORMAL":33,
						"TEXCOORD_0":34
					},
					"indices":35,
					"material":2
				}
			]
		},
		{
			"name":"leaf_7_leaf_0",
			"primitives":[
				{
					"attributes":{
						"POSITION":36,
						"NORMAL":37,
						"TEXCOORD_0":38
					},
					"indices":39,
					"material":2
				}
			]
		}
	],
	"textures":[
		{
			"sampler":0,
			"source":0
		},
		{
			"sampler":0,
			"source":1
		},
		{
			"sampler":0,
			"source":2
		}
	],
	"images":[
		{
			"mimeType":"image/png",
			"name":"body1_baseColor",
			"uri":"body1_baseColor.png"
		},
		{
			"mimeType":"image/png",
			"name":"body_baseColor",
			"uri":"body_baseColor.png"
		},
		{
			"mimeType":"image/png",
			"name":"leaf_baseColor",
			"uri":"leaf_baseColor.png"
		}
	],
	"accessors":[
		{
			"bufferView":0,
			"componentType":5126,
			"count":508,
			"max":[
				-75.50848388671875,
				24.76103973388672,
				24.468494415283203
			],
			"min":[
				-88.40121459960938,
				-19.34912109375,
				-24.008869171142578
			],
			"type":"VEC3"
		},
		{
			"bufferView":1,
			"componentType":5126,
			"count":508,
			"type":"VEC3"
		},
		{
			"bufferView":2,
			"componentType":5126,
			"count":508,
			"type":"VEC2"
		},
		{
			"bufferView":3,
			"componentType":5123,
			"count":1614,
			"type":"SCALAR"
		},
		{
			"bufferView":4,
			"componentType":5126,
			"count":629,
			"max":[
				274.358642578125,
				30.58660125732422,
				31.822307586669922
			],
			"min":[
				-76.9881362915039,
				-26.862628936767578,
				-30.522214889526367
			],
			"type":"VEC3"
		},
		{
			"bufferView":5,
			"componentType":5126,
			"count":629,
			"type":"VEC3"
		},
		{
			"bufferView":6,
			"componentType":5126,
			"count":629,
			"type":"VEC2"
		},
		{
			"bufferView":7,
			"componentType":5123,
			"count":3669,
			"type":"SCALAR"
		},
		{
			"bufferView":8,
			"componentType":5126,
			"count":198,
			"max":[
				-87.3072280883789,
				13.97443962097168,
				12.386250495910645
			],
			"min":[
				-105.07769012451172,
				-8.963579177856445,
				-10.670310020446777
			],
			"type":"VEC3"
		},
		{
			"bufferView":9,
			"componentType":5126,
			"count":198,
			"type":"VEC3"
		},
		{
			"bufferView":10,
			"componentType":5126,
			"count":198,
			"type":"VEC2"
		},
		{
			"bufferView":11,
			"componentType":5123,
			"count":558,
			"type":"SCALAR"
		},
		{
			"bufferView":12,
			"componentType":5126,
			"count":508,
			"max":[
				-104.15641784667969,
				42.62632751464844,
				108.173583984375
			],
			"min":[
				-183.05178833007812,
				-38.95855712890625,
				9.30697250366211
			],
			"type":"VEC3"
		},
		{
			"bufferView":13,
			"componentType":5126,
			"count":508,
			"type":"VEC3"
		},
		{
			"bufferView":14,
			"componentType":5126,
			"count":508,
			"type":"VEC2"
		},
		{
			"bufferView":15,
			"componentType":5123,
			"count":1779,
			"type":"SCALAR"
		},
		{
			"bufferView":16,
			"componentType":5126,
			"count":527,
			"max":[
				-104.16751861572266,
				105.03362274169922,
				41.3686637878418
			],
			"min":[
				-275.7582702636719,
				11.094131469726562,
				-40.23612594604492
			],
			"type":"VEC3"
		},
		{
			"bufferView":17,
			"componentType":5126,
			"count":527,
			"type":"VEC3"
		},
		{
			"bufferView":18,
			"componentType":5126,
			"count":527,
			"type":"VEC2"
		},
		{
			"bufferView":19,
			"componentType":5123,
			"count":1833,
			"type":"SCALAR"
		},
		{
			"bufferView":20,
			"componentType":5126,
			"count":517,
			"max":[
				-104.15641784667969,
				42.626346588134766,
				-7.9373931884765625
			],
			"min":[
				-183.05177307128906,
				-38.95853805541992,
				-106.80400085449219
			],
			"type":"VEC3"
		},
		{
			"bufferView":21,
			"componentType":5126,
			"count":517,
			"type":"VEC3"
		},
		{
			"bufferView":22,
			"componentType":5126,
			"count":517,
			"type":"VEC2"
		},
		{
			"bufferView":23,
			"componentType":5123,
			"count":1791,
			"type":"SCALAR"
		},
		{
			"bufferView":24,
			"componentType":5126,
			"count":524,
			"max":[
				-104.16751861572266,
				-7.620212554931641,
				41.36707305908203
			],
			"min":[
				-275.7582702636719,
				-101.57533264160156,
				-40.23771286010742
			],
			"type":"VEC3"
		},
		{
			"bufferView":25,
			"componentType":5126,
			"count":524,
			"type":"VEC3"
		},
		{
			"bufferView":26,
			"componentType":5126,
			"count":524,
			"type":"VEC2"
		},
		{
			"bufferView":27,
			"componentType":5123,
			"count":1824,
			"type":"SCALAR"
		},
		{
			"bufferView":28,
			"componentType":5126,
			"count":371,
			"max":[
				-45.19793701171875,
				60.02105712890625,
				34.22357177734375
			],
			"min":[
				-287.52105712890625,
				-4.3544921875,
				-13.954948425292969
			],
			"type":"VEC3"
		},
		{
			"bufferView":29,
			"componentType":5126,
			"count":371,
			"type":"VEC3"
		},
		{
			"bufferView":30,
			"componentType":5126,
			"count":371,
			"type":"VEC2"
		},
		{
			"bufferView":31,
			"componentType":5123,
			"count":1188,
			"type":"SCALAR"
		},
		{
			"bufferView":32,
			"componentType":5126,
			"count":384,
			"max":[
				-47.44294738769531,
				1.68634033203125,
				15.765830993652344
			],
			"min":[
				-291.1972351074219,
				-60.044803619384766,
				-30.804044723510742
			],
			"type":"VEC3"
		},
		{
			"bufferView":33,
			"componentType":5126,
			"count":384,
			"type":"VEC3"
		},
		{
			"bufferView":34,
			"componentType":5126,
			"count":384,
			"type":"VEC2"
		},
		{
			"bufferView":35,
			"componentType":5123,
			"count":1188,
			"type":"SCALAR"
		},
		{
			"bufferView":36,
			"componentType":5126,
			"count":406,
			"max":[
				-47.95423889160156,
				31.213672637939453,
				6.8173980712890625
			],
			"min":[
				-283.64801025390625,
				-14.821122169494629,
				-80.24307250976562
			],
			"type":"VEC3"
		},
		{
			"bufferView":37,
			"componentType":5126,
			"count":406,
			"type":"VEC3"
		},
		{
			"bufferView":38,
			"componentType":5126,
			"count":406,
			"type":"VEC2"
		},
		{
			"bufferView":39,
			"componentType":5123,
			"count":1188,
			"type":"SCALAR"
		}
	],
	"bufferViews":[
		{
			"buffer":0,
			"byteLength":6096,
			"byteOffset":0,
			"target":34962
		},
		{
			"buffer":0,
			"byteLength":6096,
			"byteOffset":6096,
			"target":34962
		},
		{
			"buffer":0,
			"byteLength":4064,
			"byteOffset":12192,
			"target":34962
		},
		{
			"buffer":0,
			"byteLength":3228,
			"byteOffset":16256,
			"target":34963
		},
		{
			"buffer":0,
			"byteLength":7548,
			"byteOffset":19484,
			"target":34962
		},
		{
			"buffer":0,
			"byteLength":7548,
			"byteOffset":27032,
			"target":34962
		},
		{
			"buffer":0,
			"byteLength":5032,
			"byteOffset":34580,
			"target":34962
		},
		{
			"buffer":0,
			"byteLength":7338,
			"byteOffset":39612,
			"target":34963
		},
		{
			"buffer":0,
			"byteLength":2376,
			"byteOffset":46952,
			"target":34962
		},
		{
			"buffer":0,
			"byteLength":2376,
			"byteOffset":49328,
			"target":34962
		},
		{
			"buffer":0,
			"byteLength":1584,
			"byteOffset":51704,
			"target":34962
		},
		{
			"buffer":0,
			"byteLength":1116,
			"byteOffset":53288,
			"target":34963
		},
		{
			"buffer":0,
			"byteLength":6096,
			"byteOffset":54404,
			"target":34962
		},
		{
			"buffer":0,
			"byteLength":6096,
			"byteOffset":60500,
			"target":34962
		},
		{
			"buffer":0,
			"byteLength":4064,
			"byteOffset":66596,
			"target":34962
		},
		{
			"buffer":0,
			"byteLength":3558,
			"byteOffset":70660,
			"target":34963
		},
		{
			"buffer":0,
			"byteLength":6324,
			"byteOffset":74220,
			"target":34962
		},
		{
			"buffer":0,
			"byteLength":6324,
			"byteOffset":80544,
			"target":34962
		},
		{
			"buffer":0,
			"byteLength":4216,
			"byteOffset":86868,
			"target":34962
		},
		{
			"buffer":0,
			"byteLength":3666,
			"byteOffset":91084,
			"target":34963
		},
		{
			"buffer":0,
			"byteLength":6204,
			"byteOffset":94752,
			"target":34962
		},
		{
			"buffer":0,
			"byteLength":6204,
			"byteOffset":100956,
			"target":34962
		},
		{
			"buffer":0,
			"byteLength":4136,
			"byteOffset":107160,
			"target":34962
		},
		{
			"buffer":0,
			"byteLength":3582,
			"byteOffset":111296,
			"target":34963
		},
		{
			"buffer":0,
			"byteLength":6288,
			"byteOffset":114880,
			"target":34962
		},
		{
			"buffer":0,
			"byteLength":6288,
			"byteOffset":121168,
			"target":34962
		},
		{
			"buffer":0,
			"byteLength":4192,
			"byteOffset":127456,
			"target":34962
		},
		{
			"buffer":0,
			"byteLength":3648,
			"byteOffset":131648,
			"target":34963
		},
		{
			"buffer":0,
			"byteLength":4452,
			"byteOffset":135296,
			"target":34962
		},
		{
			"buffer":0,
			"byteLength":4452,
			"byteOffset":139748,
			"target":34962
		},
		{
			"buffer":0,
			"byteLength":2968,
			"byteOffset":144200,
			"target":34962
		},
		{
			"buffer":0,
			"byteLength":2376,
			"byteOffset":147168,
			"target":34963
		},
		{
			"buffer":0,
			"byteLength":4608,
			"byteOffset":149544,
			"target":34962
		},
		{
			"buffer":0,
			"byteLength":4608,
			"byteOffset":154152,
			"target":34962
		},
		{
			"buffer":0,
			"byteLength":3072,
			"byteOffset":158760,
			"target":34962
		},
		{
			"buffer":0,
			"byteLength":2376,
			"byteOffset":161832,
			"target":34963
		},
		{
			"buffer":0,
			"byteLength":4872,
			"byteOffset":164208,
			"target":34962
		},
		{
			"buffer":0,
			"byteLength":4872,
			"byteOffset":169080,
			"target":34962
		},
		{
			"buffer":0,
			"byteLength":3248,
			"byteOffset":173952,
			"target":34962
		},
		{
			"buffer":0,
			"byteLength":2376,
			"byteOffset":177200,
			"target":34963
		}
	],
	"samplers":[
		{
			"magFilter":9729,
			"minFilter":9987
		}
	],
	"buffers":[
		{
			"byteLength":179576,
			"uri":"carrot_v2.bin"
		}
	]
}
