{
	"asset":{
		"generator":"Khronos glTF Blender I/O v4.3.47",
		"version":"2.0"
	},
	"scene":0,
	"scenes":[
		{
			"name":"Scene",
			"nodes":[
				4
			]
		}
	],
	"nodes":[
		{
			"mesh":0,
			"name":"polySurface1_lambert18_0",
			"translation":[
				-4.15513277053833,
				-0.629389226436615,
				-1.7130722999572754
			]
		},
		{
			"children":[
				0
			],
			"name":"polySurface1",
			"rotation":[
				-0.7152957320213318,
				0.5754478573799133,
				0.010774013586342335,
				0.39635324478149414
			],
			"scale":[
				100,
				100.0000228881836,
				100.0000228881836
			],
			"translation":[
				164.4188690185547,
				-237.76068115234375,
				-347.751953125
			]
		},
		{
			"children":[
				1
			],
			"name":"RootNode"
		},
		{
			"children":[
				2
			],
			"name":"flour_final.fbx",
			"rotation":[
				0.70710688829422,
				0,
				0,
				0.7071066498756409
			],
			"scale":[
				0.009999999776482582,
				0.010000000707805157,
				0.010000000707805157
			]
		},
		{
			"children":[
				3
			],
			"name":"Sketchfab_model",
			"rotation":[
				-0.70710688829422,
				0,
				0,
				0.7071066498756409
			]
		}
	],
	"materials":[
		{
			"doubleSided":true,
			"name":"lambert18",
			"normalTexture":{
				"index":0
			},
			"pbrMetallicRoughness":{
				"baseColorTexture":{
					"index":1
				},
				"metallicFactor":0,
				"roughnessFactor":0.6000000238418579
			}
		}
	],
	"meshes":[
		{
			"name":"polySurface1_lambert18_0",
			"primitives":[
				{
					"attributes":{
						"POSITION":0,
						"NORMAL":1,
						"TEXCOORD_0":2,
						"TEXCOORD_1":3
					},
					"indices":4,
					"material":0
				}
			]
		}
	],
	"textures":[
		{
			"sampler":0,
			"source":0
		},
		{
			"sampler":0,
			"source":1
		}
	],
	"images":[
		{
			"mimeType":"image/png",
			"name":"lambert18_normal",
			"uri":"lambert18_normal.png"
		},
		{
			"mimeType":"image/png",
			"name":"lambert18_baseColor",
			"uri":"lambert18_baseColor.png"
		}
	],
	"accessors":[
		{
			"bufferView":0,
			"componentType":5126,
			"count":984,
			"max":[
				1.819610834121704,
				0.9076551795005798,
				1.1993671655654907
			],
			"min":[
				-1.5698328018188477,
				-0.8553071618080139,
				-1.5602439641952515
			],
			"type":"VEC3"
		},
		{
			"bufferView":1,
			"componentType":5126,
			"count":984,
			"type":"VEC3"
		},
		{
			"bufferView":2,
			"componentType":5126,
			"count":984,
			"type":"VEC2"
		},
		{
			"bufferView":3,
			"componentType":5126,
			"count":984,
			"type":"VEC2"
		},
		{
			"bufferView":4,
			"componentType":5123,
			"count":4902,
			"type":"SCALAR"
		}
	],
	"bufferViews":[
		{
			"buffer":0,
			"byteLength":11808,
			"byteOffset":0,
			"target":34962
		},
		{
			"buffer":0,
			"byteLength":11808,
			"byteOffset":11808,
			"target":34962
		},
		{
			"buffer":0,
			"byteLength":7872,
			"byteOffset":23616,
			"target":34962
		},
		{
			"buffer":0,
			"byteLength":7872,
			"byteOffset":31488,
			"target":34962
		},
		{
			"buffer":0,
			"byteLength":9804,
			"byteOffset":39360,
			"target":34963
		}
	],
	"samplers":[
		{
			"magFilter":9729,
			"minFilter":9987
		}
	],
	"buffers":[
		{
			"byteLength":49164,
			"uri":"flour_v3.bin"
		}
	]
}
